<?xml version="1.0" encoding="UTF-8"?>
<svg version="1.1" xmlns="http://www.w3.org/2000/svg" width="96" height="96">
<path d="M0 0 C1.5920652 -0.01902626 1.5920652 -0.01902626 3.21629333 -0.03843689 C4.35284866 -0.03550125 5.48940399 -0.03256561 6.66040039 -0.02954102 C7.83768204 -0.03478287 9.01496368 -0.04002472 10.22792053 -0.04542542 C12.71509005 -0.05184257 15.20228993 -0.05051262 17.68945312 -0.04199219 C21.4908667 -0.03348573 25.29077596 -0.06224515 29.09204102 -0.09399414 C31.51066036 -0.09560636 33.92928236 -0.09502823 36.34790039 -0.09204102 C37.48243149 -0.10327499 38.61696259 -0.11450897 39.78587341 -0.12608337 C45.8296858 -0.07282347 49.95573972 0.05979322 54.57055664 4.40405273 C57.10864745 7.99880817 57.94913697 10.44851562 57.97460938 14.83349609 C57.98729355 15.89487289 57.99997772 16.95624969 58.01304626 18.04978943 C58.01011063 19.18634476 58.00717499 20.32290009 58.00415039 21.49389648 C58.00939224 22.67117813 58.01463409 23.84845978 58.02003479 25.06141663 C58.02645195 27.54858614 58.025122 30.03578602 58.01660156 32.52294922 C58.00809511 36.3243628 58.03685452 40.12427205 58.06860352 43.92553711 C58.07021573 46.34415645 58.0696376 48.76277845 58.06665039 51.18139648 C58.07788437 52.31592758 58.08911835 53.45045868 58.10069275 54.61936951 C58.04743285 60.66318189 57.91481615 64.78923581 53.57055664 69.40405273 C49.97580121 71.94214354 47.52609376 72.78263307 43.14111328 72.80810547 C41.54904808 72.82713173 41.54904808 72.82713173 39.92481995 72.84654236 C38.78826462 72.84360672 37.65170929 72.84067108 36.48071289 72.83764648 C35.30343124 72.84288834 34.1261496 72.84813019 32.91319275 72.85353088 C30.42602323 72.85994804 27.93882336 72.85861809 25.45166016 72.85009766 C21.65024658 72.8415912 17.85033733 72.87035062 14.04907227 72.90209961 C11.63045292 72.90371183 9.21183093 72.9031337 6.79321289 72.90014648 C5.65868179 72.91138046 4.5241507 72.92261444 3.35523987 72.93418884 C-2.68857251 72.88092894 -6.81462643 72.74831225 -11.42944336 68.40405273 C-13.96753417 64.8092973 -14.80802369 62.35958985 -14.83349609 57.97460938 C-14.84618027 56.91323257 -14.85886444 55.85185577 -14.87193298 54.75831604 C-14.86899734 53.62176071 -14.86606171 52.48520538 -14.86303711 51.31420898 C-14.86827896 50.13692734 -14.87352081 48.95964569 -14.87892151 47.74668884 C-14.88533867 45.25951933 -14.88400872 42.77231945 -14.87548828 40.28515625 C-14.86698183 36.48374267 -14.89574124 32.68383342 -14.92749023 28.88256836 C-14.92910245 26.46394902 -14.92852432 24.04532702 -14.92553711 21.62670898 C-14.93677109 20.49217789 -14.94800507 19.35764679 -14.95957947 18.18873596 C-14.90631957 12.14492358 -14.77370287 8.01886966 -10.42944336 3.40405273 C-6.83468793 0.86596193 -4.38498048 0.0254724 0 0 Z M33.33618164 13.95092773 C30.9234855 17.30308078 31.16930415 19.57023542 31.32055664 23.65405273 C31.37469727 25.54897461 31.37469727 25.54897461 31.42993164 27.48217773 C31.47633789 28.44639648 31.52274414 29.41061523 31.57055664 30.40405273 C30.1590332 30.49493164 30.1590332 30.49493164 28.71899414 30.58764648 C27.47375977 30.67143555 26.22852539 30.75522461 24.94555664 30.84155273 C23.71579102 30.92276367 22.48602539 31.00397461 21.21899414 31.08764648 C17.95523276 31.37069217 14.79111805 31.81444226 11.57055664 32.40405273 C11.61696289 31.72858398 11.66336914 31.05311523 11.71118164 30.35717773 C12.00693564 24.77039859 12.00693564 24.77039859 9.94555664 19.71655273 C7.5667762 18.14303919 7.5667762 18.14303919 4.44555664 18.46655273 C1.27880732 19.17099961 1.27880732 19.17099961 -0.42944336 22.40405273 C-0.64886003 24.97049021 -0.75739503 27.42598114 -0.76538086 29.99389648 C-0.77203766 30.73483047 -0.77869446 31.47576447 -0.78555298 32.239151 C-0.7956703 33.80507935 -0.80037028 35.37105072 -0.80004883 36.93701172 C-0.80442178 39.32974423 -0.84074603 41.72063101 -0.87866211 44.11303711 C-0.88453063 45.63581727 -0.88849979 47.15860618 -0.89038086 48.68139648 C-0.90475189 49.39504868 -0.91912292 50.10870087 -0.93392944 50.84397888 C-0.90258467 54.26063594 -0.64719134 56.10874472 1.40405273 58.890625 C3.55724182 60.71118466 3.55724182 60.71118466 6.69555664 60.34155273 C9.86230596 59.63710586 9.86230596 59.63710586 11.57055664 56.40405273 C11.7127673 53.80159776 11.75858596 51.3128759 11.69555664 48.71655273 C11.6865332 48.0146582 11.67750977 47.31276367 11.66821289 46.58959961 C11.64469368 44.86093748 11.60882377 43.13245128 11.57055664 41.40405273 C12.4277832 41.3434668 13.28500977 41.28288086 14.16821289 41.22045898 C20.00660537 40.79261737 25.79112936 40.34488973 31.57055664 39.40405273 C31.50094727 40.52553711 31.50094727 40.52553711 31.42993164 41.66967773 C31.09816288 47.68294409 31.09816288 47.68294409 33.19555664 53.15405273 C35.58432252 54.65562194 35.58432252 54.65562194 38.69555664 54.34155273 C41.86230596 53.63710586 41.86230596 53.63710586 43.57055664 50.40405273 C43.78997331 47.83761526 43.89850831 45.38212433 43.90649414 42.81420898 C43.91315094 42.07327499 43.91980774 41.332341 43.92666626 40.56895447 C43.93678358 39.00302612 43.94148356 37.43705474 43.94116211 35.87109375 C43.94553506 33.47836124 43.98185931 31.08747446 44.01977539 28.69506836 C44.02564391 27.1722882 44.02961307 25.64949929 44.03149414 24.12670898 C44.04586517 23.41305679 44.06023621 22.6994046 44.07504272 21.96412659 C44.04405216 18.58607911 43.78028196 16.69676434 41.79174805 13.92138672 C38.59513132 11.73772295 36.51648449 11.74917961 33.33618164 13.95092773 Z " fill="#ffffff" transform="translate(26.429443359375,11.595947265625)"/>
</svg>
